<?xml version="1.0" encoding="UTF-8" standalone="no"?>
<!DOCTYPE svg PUBLIC "-//W3C//DTD SVG 1.1//EN"
 "http://www.w3.org/Graphics/SVG/1.1/DTD/svg11.dtd">
<!-- Generated by graphviz version 2.38.0 (20140413.2041)
 -->
<!-- Title: %3 Pages: 1 -->
<svg width="704pt" height="332pt"
 viewBox="0.00 0.00 703.50 332.00" xmlns="http://www.w3.org/2000/svg" xmlns:xlink="http://www.w3.org/1999/xlink">
<g id="graph0" class="graph" transform="scale(1 1) rotate(0) translate(4 328)">
<title>%3</title>
<!-- 8e448cd8ef842bd19b9c7760c13af761bdce6d7a -->
<g id="node1" class="node"><title>8e448cd8ef842bd19b9c7760c13af761bdce6d7a</title>
<path fill="#fcf594" stroke="#a0a0a0" d="M293,-252C293,-252 12,-252 12,-252 6,-252 0,-246 0,-240 0,-240 0,-228 0,-228 0,-222 6,-216 12,-216 12,-216 293,-216 293,-216 299,-216 305,-222 305,-228 305,-228 305,-240 305,-240 305,-246 299,-252 293,-252"/>
<text text-anchor="start" x="16" y="-237.8" font-family="Courier,monospace" font-size="14.00" fill="#333355">8e448c:</text>
<text text-anchor="start" x="74" y="-237.8" font-family="Courier,monospace" font-weight="bold" font-size="14.00" fill="#333355">hello&#45;world: add changelog</text>
<text text-anchor="start" x="8" y="-223.8" font-family="Courier,monospace" font-size="14.00" fill="#333355"> Max Mustermann 2017&#45;07&#45;31 13:59:05</text>
</g>
<!-- refs/heads/hello&#45;world -->
<g id="node7" class="node"><title>refs/heads/hello&#45;world</title>
<path fill="#c7ffc7" stroke="#a0a0a0" d="M194,-324C194,-324 111,-324 111,-324 105,-324 99,-318 99,-312 99,-312 99,-300 99,-300 99,-294 105,-288 111,-288 111,-288 194,-288 194,-288 200,-288 206,-294 206,-300 206,-300 206,-312 206,-312 206,-318 200,-324 194,-324"/>
<text text-anchor="start" x="135.5" y="-309.8" font-family="Courier,monospace" font-weight="bold" font-size="14.00" fill="#333355">HEAD</text>
<text text-anchor="start" x="107" y="-295.8" font-family="Courier,monospace" font-weight="bold" font-size="14.00" fill="#333355">hello&#45;world</text>
</g>
<!-- 8e448cd8ef842bd19b9c7760c13af761bdce6d7a&#45;&gt;refs/heads/hello&#45;world -->
<g id="edge1" class="edge"><title>8e448cd8ef842bd19b9c7760c13af761bdce6d7a&#45;&gt;refs/heads/hello&#45;world</title>
<path fill="none" stroke="#cc9900" stroke-width="2" d="M152.5,-262.169C152.5,-262.169 152.5,-287.587 152.5,-287.587"/>
<polygon fill="#cc9900" stroke="#cc9900" stroke-width="2" points="156,-262.169 152.5,-252.169 149,-262.169 156,-262.169"/>
</g>
<!-- 849c17589476d9451bc55659008cda5ac2aa68cb -->
<g id="node2" class="node"><title>849c17589476d9451bc55659008cda5ac2aa68cb</title>
<path fill="#fcf594" stroke="#a0a0a0" d="M427,-36C427,-36 146,-36 146,-36 140,-36 134,-30 134,-24 134,-24 134,-12 134,-12 134,-6 140,-0 146,-0 146,-0 427,-0 427,-0 433,-0 439,-6 439,-12 439,-12 439,-24 439,-24 439,-30 433,-36 427,-36"/>
<text text-anchor="start" x="183" y="-21.8" font-family="Courier,monospace" font-size="14.00" fill="#333355">849c17:</text>
<text text-anchor="start" x="241" y="-21.8" font-family="Courier,monospace" font-weight="bold" font-size="14.00" fill="#333355">inital boilerplate</text>
<text text-anchor="start" x="142" y="-7.8" font-family="Courier,monospace" font-size="14.00" fill="#333355"> Max Mustermann 2017&#45;07&#45;31 12:59:40</text>
</g>
<!-- 9af1a518a77bc56dc697bee6ba1c356bb0c1b2f8 -->
<g id="node4" class="node"><title>9af1a518a77bc56dc697bee6ba1c356bb0c1b2f8</title>
<path fill="#fcf594" stroke="#a0a0a0" d="M427,-108C427,-108 146,-108 146,-108 140,-108 134,-102 134,-96 134,-96 134,-84 134,-84 134,-78 140,-72 146,-72 146,-72 427,-72 427,-72 433,-72 439,-78 439,-84 439,-84 439,-96 439,-96 439,-102 433,-108 427,-108"/>
<text text-anchor="start" x="216" y="-93.8" font-family="Courier,monospace" font-size="14.00" fill="#333355">9af1a5:</text>
<text text-anchor="start" x="274" y="-93.8" font-family="Courier,monospace" font-weight="bold" font-size="14.00" fill="#333355">add README</text>
<text text-anchor="start" x="142" y="-79.8" font-family="Courier,monospace" font-size="14.00" fill="#333355"> Max Mustermann 2017&#45;07&#45;31 13:03:40</text>
</g>
<!-- 849c17589476d9451bc55659008cda5ac2aa68cb&#45;&gt;9af1a518a77bc56dc697bee6ba1c356bb0c1b2f8 -->
<g id="edge5" class="edge"><title>849c17589476d9451bc55659008cda5ac2aa68cb&#45;&gt;9af1a518a77bc56dc697bee6ba1c356bb0c1b2f8</title>
<path fill="none" stroke="#cc9900" stroke-width="2" d="M286.5,-36.1686C286.5,-36.1686 286.5,-61.5867 286.5,-61.5867"/>
<polygon fill="#cc9900" stroke="#cc9900" stroke-width="2" points="283,-61.5867 286.5,-71.5867 290,-61.5868 283,-61.5867"/>
</g>
<!-- 0dd2abecc31c0dca958734cbff92f3a1554cd7f1 -->
<g id="node3" class="node"><title>0dd2abecc31c0dca958734cbff92f3a1554cd7f1</title>
<path fill="#fcf594" stroke="#a0a0a0" d="M337,-180C337,-180 56,-180 56,-180 50,-180 44,-174 44,-168 44,-168 44,-156 44,-156 44,-150 50,-144 56,-144 56,-144 337,-144 337,-144 343,-144 349,-150 349,-156 349,-156 349,-168 349,-168 349,-174 343,-180 337,-180"/>
<text text-anchor="start" x="76.5" y="-165.8" font-family="Courier,monospace" font-size="14.00" fill="#333355">0dd2ab:</text>
<text text-anchor="start" x="134.5" y="-165.8" font-family="Courier,monospace" font-weight="bold" font-size="14.00" fill="#333355">add hello&#45;world script</text>
<text text-anchor="start" x="52" y="-151.8" font-family="Courier,monospace" font-size="14.00" fill="#333355"> Max Mustermann 2017&#45;07&#45;31 13:20:17</text>
</g>
<!-- 0dd2abecc31c0dca958734cbff92f3a1554cd7f1&#45;&gt;8e448cd8ef842bd19b9c7760c13af761bdce6d7a -->
<g id="edge4" class="edge"><title>0dd2abecc31c0dca958734cbff92f3a1554cd7f1&#45;&gt;8e448cd8ef842bd19b9c7760c13af761bdce6d7a</title>
<path fill="none" stroke="#cc9900" stroke-width="2" d="M174.5,-180.169C174.5,-180.169 174.5,-205.587 174.5,-205.587"/>
<polygon fill="#cc9900" stroke="#cc9900" stroke-width="2" points="171,-205.587 174.5,-215.587 178,-205.587 171,-205.587"/>
</g>
<!-- 9af1a518a77bc56dc697bee6ba1c356bb0c1b2f8&#45;&gt;0dd2abecc31c0dca958734cbff92f3a1554cd7f1 -->
<g id="edge3" class="edge"><title>9af1a518a77bc56dc697bee6ba1c356bb0c1b2f8&#45;&gt;0dd2abecc31c0dca958734cbff92f3a1554cd7f1</title>
<path fill="none" stroke="#cc9900" stroke-width="2" d="M241.5,-108.169C241.5,-108.169 241.5,-133.587 241.5,-133.587"/>
<polygon fill="#cc9900" stroke="#cc9900" stroke-width="2" points="238,-133.587 241.5,-143.587 245,-133.587 238,-133.587"/>
</g>
<!-- c1ce07c74020b5c0e113639e8d976bf32a843c6b -->
<g id="node5" class="node"><title>c1ce07c74020b5c0e113639e8d976bf32a843c6b</title>
<path fill="#fcf594" stroke="#a0a0a0" d="M683.5,-252C683.5,-252 335.5,-252 335.5,-252 329.5,-252 323.5,-246 323.5,-240 323.5,-240 323.5,-228 323.5,-228 323.5,-222 329.5,-216 335.5,-216 335.5,-216 683.5,-216 683.5,-216 689.5,-216 695.5,-222 695.5,-228 695.5,-228 695.5,-240 695.5,-240 695.5,-246 689.5,-252 683.5,-252"/>
<text text-anchor="start" x="331.5" y="-237.8" font-family="Courier,monospace" font-size="14.00" fill="#333355">c1ce07:</text>
<text text-anchor="start" x="389.5" y="-237.8" font-family="Courier,monospace" font-weight="bold" font-size="14.00" fill="#333355">add remark about &#39;hello world&#39; order</text>
<text text-anchor="start" x="365" y="-223.8" font-family="Courier,monospace" font-size="14.00" fill="#333355"> Max Mustermann 2017&#45;07&#45;31 13:29:11</text>
</g>
<!-- 9af1a518a77bc56dc697bee6ba1c356bb0c1b2f8&#45;&gt;c1ce07c74020b5c0e113639e8d976bf32a843c6b -->
<g id="edge6" class="edge"><title>9af1a518a77bc56dc697bee6ba1c356bb0c1b2f8&#45;&gt;c1ce07c74020b5c0e113639e8d976bf32a843c6b</title>
<path fill="none" stroke="#cc9900" stroke-width="2" d="M394,-108.238C394,-108.238 394,-205.91 394,-205.91"/>
<polygon fill="#cc9900" stroke="#cc9900" stroke-width="2" points="390.5,-205.91 394,-215.91 397.5,-205.91 390.5,-205.91"/>
</g>
<!-- refs/heads/master -->
<g id="node6" class="node"><title>refs/heads/master</title>
<path fill="#eeeeee" stroke="#a0a0a0" d="M530.5,-324C530.5,-324 488.5,-324 488.5,-324 482.5,-324 476.5,-318 476.5,-312 476.5,-312 476.5,-300 476.5,-300 476.5,-294 482.5,-288 488.5,-288 488.5,-288 530.5,-288 530.5,-288 536.5,-288 542.5,-294 542.5,-300 542.5,-300 542.5,-312 542.5,-312 542.5,-318 536.5,-324 530.5,-324"/>
<text text-anchor="start" x="484.5" y="-309.8" font-family="Courier,monospace" font-weight="bold" font-size="14.00" fill="#333355">branch</text>
<text text-anchor="start" x="484.5" y="-295.8" font-family="Courier,monospace" font-weight="bold" font-size="14.00" fill="#333355">master</text>
</g>
<!-- c1ce07c74020b5c0e113639e8d976bf32a843c6b&#45;&gt;refs/heads/master -->
<g id="edge2" class="edge"><title>c1ce07c74020b5c0e113639e8d976bf32a843c6b&#45;&gt;refs/heads/master</title>
<path fill="none" stroke="#cc9900" stroke-width="2" d="M509.5,-262.169C509.5,-262.169 509.5,-287.587 509.5,-287.587"/>
<polygon fill="#cc9900" stroke="#cc9900" stroke-width="2" points="513,-262.169 509.5,-252.169 506,-262.169 513,-262.169"/>
</g>
</g>
</svg>
