<?xml version="1.0" encoding="UTF-8" standalone="no"?>
<!DOCTYPE svg PUBLIC "-//W3C//DTD SVG 1.1//EN"
 "http://www.w3.org/Graphics/SVG/1.1/DTD/svg11.dtd">
<!-- Generated by graphviz version 2.38.0 (20140413.2041)
 -->
<!-- Title: %3 Pages: 1 -->
<svg width="704pt" height="404pt"
 viewBox="0.00 0.00 703.50 404.00" xmlns="http://www.w3.org/2000/svg" xmlns:xlink="http://www.w3.org/1999/xlink">
<g id="graph0" class="graph" transform="scale(1 1) rotate(0) translate(4 400)">
<title>%3</title>
<!-- f5f3b628bb5c77ac5bbe9409bac7c5ac148a7f43 -->
<g id="node1" class="node"><title>f5f3b628bb5c77ac5bbe9409bac7c5ac148a7f43</title>
<path fill="#fcf594" stroke="#a0a0a0" d="M414.5,-324C414.5,-324 133.5,-324 133.5,-324 127.5,-324 121.5,-318 121.5,-312 121.5,-312 121.5,-300 121.5,-300 121.5,-294 127.5,-288 133.5,-288 133.5,-288 414.5,-288 414.5,-288 420.5,-288 426.5,-294 426.5,-300 426.5,-300 426.5,-312 426.5,-312 426.5,-318 420.5,-324 414.5,-324"/>
<text text-anchor="start" x="145.5" y="-309.8" font-family="Courier,monospace" font-size="14.00" fill="#333355">f5f3b6:</text>
<text text-anchor="start" x="203.5" y="-309.8" font-family="Courier,monospace" font-weight="bold" font-size="14.00" fill="#333355">merge hello&#45;world branch</text>
<text text-anchor="start" x="129.5" y="-295.8" font-family="Courier,monospace" font-size="14.00" fill="#333355"> Max Mustermann 2017&#45;07&#45;31 15:23:54</text>
</g>
<!-- refs/heads/master -->
<g id="node7" class="node"><title>refs/heads/master</title>
<path fill="#c7ffc7" stroke="#a0a0a0" d="M295,-396C295,-396 253,-396 253,-396 247,-396 241,-390 241,-384 241,-384 241,-372 241,-372 241,-366 247,-360 253,-360 253,-360 295,-360 295,-360 301,-360 307,-366 307,-372 307,-372 307,-384 307,-384 307,-390 301,-396 295,-396"/>
<text text-anchor="start" x="257" y="-381.8" font-family="Courier,monospace" font-weight="bold" font-size="14.00" fill="#333355">HEAD</text>
<text text-anchor="start" x="249" y="-367.8" font-family="Courier,monospace" font-weight="bold" font-size="14.00" fill="#333355">master</text>
</g>
<!-- f5f3b628bb5c77ac5bbe9409bac7c5ac148a7f43&#45;&gt;refs/heads/master -->
<g id="edge4" class="edge"><title>f5f3b628bb5c77ac5bbe9409bac7c5ac148a7f43&#45;&gt;refs/heads/master</title>
<path fill="none" stroke="#cc9900" stroke-width="2" d="M274,-334.169C274,-334.169 274,-359.587 274,-359.587"/>
<polygon fill="#cc9900" stroke="#cc9900" stroke-width="2" points="277.5,-334.169 274,-324.169 270.5,-334.169 277.5,-334.169"/>
</g>
<!-- c1ce07c74020b5c0e113639e8d976bf32a843c6b -->
<g id="node2" class="node"><title>c1ce07c74020b5c0e113639e8d976bf32a843c6b</title>
<path fill="#fcf594" stroke="#a0a0a0" d="M360,-252C360,-252 12,-252 12,-252 6,-252 2.84217e-14,-246 2.84217e-14,-240 2.84217e-14,-240 2.84217e-14,-228 2.84217e-14,-228 2.84217e-14,-222 6,-216 12,-216 12,-216 360,-216 360,-216 366,-216 372,-222 372,-228 372,-228 372,-240 372,-240 372,-246 366,-252 360,-252"/>
<text text-anchor="start" x="8" y="-237.8" font-family="Courier,monospace" font-size="14.00" fill="#333355">c1ce07:</text>
<text text-anchor="start" x="66" y="-237.8" font-family="Courier,monospace" font-weight="bold" font-size="14.00" fill="#333355">add remark about &#39;hello world&#39; order</text>
<text text-anchor="start" x="41.5" y="-223.8" font-family="Courier,monospace" font-size="14.00" fill="#333355"> Max Mustermann 2017&#45;07&#45;31 13:29:11</text>
</g>
<!-- c1ce07c74020b5c0e113639e8d976bf32a843c6b&#45;&gt;f5f3b628bb5c77ac5bbe9409bac7c5ac148a7f43 -->
<g id="edge2" class="edge"><title>c1ce07c74020b5c0e113639e8d976bf32a843c6b&#45;&gt;f5f3b628bb5c77ac5bbe9409bac7c5ac148a7f43</title>
<path fill="none" stroke="#cc9900" stroke-width="2" d="M246.75,-252.169C246.75,-252.169 246.75,-277.587 246.75,-277.587"/>
<polygon fill="#cc9900" stroke="#cc9900" stroke-width="2" points="243.25,-277.587 246.75,-287.587 250.25,-277.587 243.25,-277.587"/>
</g>
<!-- 849c17589476d9451bc55659008cda5ac2aa68cb -->
<g id="node3" class="node"><title>849c17589476d9451bc55659008cda5ac2aa68cb</title>
<path fill="#fcf594" stroke="#a0a0a0" d="M460.5,-36C460.5,-36 179.5,-36 179.5,-36 173.5,-36 167.5,-30 167.5,-24 167.5,-24 167.5,-12 167.5,-12 167.5,-6 173.5,-0 179.5,-0 179.5,-0 460.5,-0 460.5,-0 466.5,-0 472.5,-6 472.5,-12 472.5,-12 472.5,-24 472.5,-24 472.5,-30 466.5,-36 460.5,-36"/>
<text text-anchor="start" x="216.5" y="-21.8" font-family="Courier,monospace" font-size="14.00" fill="#333355">849c17:</text>
<text text-anchor="start" x="274.5" y="-21.8" font-family="Courier,monospace" font-weight="bold" font-size="14.00" fill="#333355">inital boilerplate</text>
<text text-anchor="start" x="175.5" y="-7.8" font-family="Courier,monospace" font-size="14.00" fill="#333355"> Max Mustermann 2017&#45;07&#45;31 12:59:40</text>
</g>
<!-- 9af1a518a77bc56dc697bee6ba1c356bb0c1b2f8 -->
<g id="node4" class="node"><title>9af1a518a77bc56dc697bee6ba1c356bb0c1b2f8</title>
<path fill="#fcf594" stroke="#a0a0a0" d="M460.5,-108C460.5,-108 179.5,-108 179.5,-108 173.5,-108 167.5,-102 167.5,-96 167.5,-96 167.5,-84 167.5,-84 167.5,-78 173.5,-72 179.5,-72 179.5,-72 460.5,-72 460.5,-72 466.5,-72 472.5,-78 472.5,-84 472.5,-84 472.5,-96 472.5,-96 472.5,-102 466.5,-108 460.5,-108"/>
<text text-anchor="start" x="249.5" y="-93.8" font-family="Courier,monospace" font-size="14.00" fill="#333355">9af1a5:</text>
<text text-anchor="start" x="307.5" y="-93.8" font-family="Courier,monospace" font-weight="bold" font-size="14.00" fill="#333355">add README</text>
<text text-anchor="start" x="175.5" y="-79.8" font-family="Courier,monospace" font-size="14.00" fill="#333355"> Max Mustermann 2017&#45;07&#45;31 13:03:40</text>
</g>
<!-- 849c17589476d9451bc55659008cda5ac2aa68cb&#45;&gt;9af1a518a77bc56dc697bee6ba1c356bb0c1b2f8 -->
<g id="edge1" class="edge"><title>849c17589476d9451bc55659008cda5ac2aa68cb&#45;&gt;9af1a518a77bc56dc697bee6ba1c356bb0c1b2f8</title>
<path fill="none" stroke="#cc9900" stroke-width="2" d="M320,-36.1686C320,-36.1686 320,-61.5867 320,-61.5867"/>
<polygon fill="#cc9900" stroke="#cc9900" stroke-width="2" points="316.5,-61.5867 320,-71.5867 323.5,-61.5868 316.5,-61.5867"/>
</g>
<!-- 9af1a518a77bc56dc697bee6ba1c356bb0c1b2f8&#45;&gt;c1ce07c74020b5c0e113639e8d976bf32a843c6b -->
<g id="edge8" class="edge"><title>9af1a518a77bc56dc697bee6ba1c356bb0c1b2f8&#45;&gt;c1ce07c74020b5c0e113639e8d976bf32a843c6b</title>
<path fill="none" stroke="#cc9900" stroke-width="2" d="M257,-108.238C257,-108.238 257,-205.91 257,-205.91"/>
<polygon fill="#cc9900" stroke="#cc9900" stroke-width="2" points="253.5,-205.91 257,-215.91 260.5,-205.91 253.5,-205.91"/>
</g>
<!-- 0dd2abecc31c0dca958734cbff92f3a1554cd7f1 -->
<g id="node5" class="node"><title>0dd2abecc31c0dca958734cbff92f3a1554cd7f1</title>
<path fill="#fcf594" stroke="#a0a0a0" d="M639.5,-180C639.5,-180 358.5,-180 358.5,-180 352.5,-180 346.5,-174 346.5,-168 346.5,-168 346.5,-156 346.5,-156 346.5,-150 352.5,-144 358.5,-144 358.5,-144 639.5,-144 639.5,-144 645.5,-144 651.5,-150 651.5,-156 651.5,-156 651.5,-168 651.5,-168 651.5,-174 645.5,-180 639.5,-180"/>
<text text-anchor="start" x="379" y="-165.8" font-family="Courier,monospace" font-size="14.00" fill="#333355">0dd2ab:</text>
<text text-anchor="start" x="437" y="-165.8" font-family="Courier,monospace" font-weight="bold" font-size="14.00" fill="#333355">add hello&#45;world script</text>
<text text-anchor="start" x="354.5" y="-151.8" font-family="Courier,monospace" font-size="14.00" fill="#333355"> Max Mustermann 2017&#45;07&#45;31 13:20:17</text>
</g>
<!-- 9af1a518a77bc56dc697bee6ba1c356bb0c1b2f8&#45;&gt;0dd2abecc31c0dca958734cbff92f3a1554cd7f1 -->
<g id="edge5" class="edge"><title>9af1a518a77bc56dc697bee6ba1c356bb0c1b2f8&#45;&gt;0dd2abecc31c0dca958734cbff92f3a1554cd7f1</title>
<path fill="none" stroke="#cc9900" stroke-width="2" d="M409.5,-108.169C409.5,-108.169 409.5,-133.587 409.5,-133.587"/>
<polygon fill="#cc9900" stroke="#cc9900" stroke-width="2" points="406,-133.587 409.5,-143.587 413,-133.587 406,-133.587"/>
</g>
<!-- 8e448cd8ef842bd19b9c7760c13af761bdce6d7a -->
<g id="node6" class="node"><title>8e448cd8ef842bd19b9c7760c13af761bdce6d7a</title>
<path fill="#fcf594" stroke="#a0a0a0" d="M683.5,-252C683.5,-252 402.5,-252 402.5,-252 396.5,-252 390.5,-246 390.5,-240 390.5,-240 390.5,-228 390.5,-228 390.5,-222 396.5,-216 402.5,-216 402.5,-216 683.5,-216 683.5,-216 689.5,-216 695.5,-222 695.5,-228 695.5,-228 695.5,-240 695.5,-240 695.5,-246 689.5,-252 683.5,-252"/>
<text text-anchor="start" x="406.5" y="-237.8" font-family="Courier,monospace" font-size="14.00" fill="#333355">8e448c:</text>
<text text-anchor="start" x="464.5" y="-237.8" font-family="Courier,monospace" font-weight="bold" font-size="14.00" fill="#333355">hello&#45;world: add changelog</text>
<text text-anchor="start" x="398.5" y="-223.8" font-family="Courier,monospace" font-size="14.00" fill="#333355"> Max Mustermann 2017&#45;07&#45;31 13:59:05</text>
</g>
<!-- 0dd2abecc31c0dca958734cbff92f3a1554cd7f1&#45;&gt;8e448cd8ef842bd19b9c7760c13af761bdce6d7a -->
<g id="edge7" class="edge"><title>0dd2abecc31c0dca958734cbff92f3a1554cd7f1&#45;&gt;8e448cd8ef842bd19b9c7760c13af761bdce6d7a</title>
<path fill="none" stroke="#cc9900" stroke-width="2" d="M521,-180.169C521,-180.169 521,-205.587 521,-205.587"/>
<polygon fill="#cc9900" stroke="#cc9900" stroke-width="2" points="517.5,-205.587 521,-215.587 524.5,-205.587 517.5,-205.587"/>
</g>
<!-- 8e448cd8ef842bd19b9c7760c13af761bdce6d7a&#45;&gt;f5f3b628bb5c77ac5bbe9409bac7c5ac148a7f43 -->
<g id="edge3" class="edge"><title>8e448cd8ef842bd19b9c7760c13af761bdce6d7a&#45;&gt;f5f3b628bb5c77ac5bbe9409bac7c5ac148a7f43</title>
<path fill="none" stroke="#cc9900" stroke-width="2" d="M408.5,-252.169C408.5,-252.169 408.5,-277.587 408.5,-277.587"/>
<polygon fill="#cc9900" stroke="#cc9900" stroke-width="2" points="405,-277.587 408.5,-287.587 412,-277.587 405,-277.587"/>
</g>
<!-- refs/heads/hello&#45;world -->
<g id="node8" class="node"><title>refs/heads/hello&#45;world</title>
<path fill="#eeeeee" stroke="#a0a0a0" d="M584.5,-396C584.5,-396 501.5,-396 501.5,-396 495.5,-396 489.5,-390 489.5,-384 489.5,-384 489.5,-372 489.5,-372 489.5,-366 495.5,-360 501.5,-360 501.5,-360 584.5,-360 584.5,-360 590.5,-360 596.5,-366 596.5,-372 596.5,-372 596.5,-384 596.5,-384 596.5,-390 590.5,-396 584.5,-396"/>
<text text-anchor="start" x="518" y="-381.8" font-family="Courier,monospace" font-weight="bold" font-size="14.00" fill="#333355">branch</text>
<text text-anchor="start" x="497.5" y="-367.8" font-family="Courier,monospace" font-weight="bold" font-size="14.00" fill="#333355">hello&#45;world</text>
</g>
<!-- 8e448cd8ef842bd19b9c7760c13af761bdce6d7a&#45;&gt;refs/heads/hello&#45;world -->
<g id="edge6" class="edge"><title>8e448cd8ef842bd19b9c7760c13af761bdce6d7a&#45;&gt;refs/heads/hello&#45;world</title>
<path fill="none" stroke="#cc9900" stroke-width="2" d="M543,-262.238C543,-262.238 543,-359.91 543,-359.91"/>
<polygon fill="#cc9900" stroke="#cc9900" stroke-width="2" points="546.5,-262.238 543,-252.238 539.5,-262.238 546.5,-262.238"/>
</g>
</g>
</svg>
