<?xml version="1.0" encoding="UTF-8" standalone="no"?>
<!DOCTYPE svg PUBLIC "-//W3C//DTD SVG 1.1//EN"
 "http://www.w3.org/Graphics/SVG/1.1/DTD/svg11.dtd">
<!-- Generated by graphviz version 2.38.0 (20140413.2041)
 -->
<!-- Title: %3 Pages: 1 -->
<svg width="704pt" height="260pt"
 viewBox="0.00 0.00 703.50 260.00" xmlns="http://www.w3.org/2000/svg" xmlns:xlink="http://www.w3.org/1999/xlink">
<g id="graph0" class="graph" transform="scale(1 1) rotate(0) translate(4 256)">
<title>%3</title>
<!-- 0dd2abecc31c0dca958734cbff92f3a1554cd7f1 -->
<g id="node1" class="node"><title>0dd2abecc31c0dca958734cbff92f3a1554cd7f1</title>
<path fill="#fcf594" stroke="#a0a0a0" d="M293,-180C293,-180 12,-180 12,-180 6,-180 0,-174 0,-168 0,-168 0,-156 0,-156 0,-150 6,-144 12,-144 12,-144 293,-144 293,-144 299,-144 305,-150 305,-156 305,-156 305,-168 305,-168 305,-174 299,-180 293,-180"/>
<text text-anchor="start" x="32.5" y="-165.8" font-family="Courier,monospace" font-size="14.00" fill="#333355">0dd2ab:</text>
<text text-anchor="start" x="90.5" y="-165.8" font-family="Courier,monospace" font-weight="bold" font-size="14.00" fill="#333355">add hello&#45;world script</text>
<text text-anchor="start" x="8" y="-151.8" font-family="Courier,monospace" font-size="14.00" fill="#333355"> Max Mustermann 2017&#45;07&#45;31 13:20:17</text>
</g>
<!-- refs/heads/hello&#45;world -->
<g id="node5" class="node"><title>refs/heads/hello&#45;world</title>
<path fill="#eeeeee" stroke="#a0a0a0" d="M194,-252C194,-252 111,-252 111,-252 105,-252 99,-246 99,-240 99,-240 99,-228 99,-228 99,-222 105,-216 111,-216 111,-216 194,-216 194,-216 200,-216 206,-222 206,-228 206,-228 206,-240 206,-240 206,-246 200,-252 194,-252"/>
<text text-anchor="start" x="127.5" y="-237.8" font-family="Courier,monospace" font-weight="bold" font-size="14.00" fill="#333355">branch</text>
<text text-anchor="start" x="107" y="-223.8" font-family="Courier,monospace" font-weight="bold" font-size="14.00" fill="#333355">hello&#45;world</text>
</g>
<!-- 0dd2abecc31c0dca958734cbff92f3a1554cd7f1&#45;&gt;refs/heads/hello&#45;world -->
<g id="edge4" class="edge"><title>0dd2abecc31c0dca958734cbff92f3a1554cd7f1&#45;&gt;refs/heads/hello&#45;world</title>
<path fill="none" stroke="#cc9900" stroke-width="2" d="M152.5,-190.169C152.5,-190.169 152.5,-215.587 152.5,-215.587"/>
<polygon fill="#cc9900" stroke="#cc9900" stroke-width="2" points="156,-190.169 152.5,-180.169 149,-190.169 156,-190.169"/>
</g>
<!-- c1ce07c74020b5c0e113639e8d976bf32a843c6b -->
<g id="node2" class="node"><title>c1ce07c74020b5c0e113639e8d976bf32a843c6b</title>
<path fill="#fcf594" stroke="#a0a0a0" d="M683.5,-180C683.5,-180 335.5,-180 335.5,-180 329.5,-180 323.5,-174 323.5,-168 323.5,-168 323.5,-156 323.5,-156 323.5,-150 329.5,-144 335.5,-144 335.5,-144 683.5,-144 683.5,-144 689.5,-144 695.5,-150 695.5,-156 695.5,-156 695.5,-168 695.5,-168 695.5,-174 689.5,-180 683.5,-180"/>
<text text-anchor="start" x="331.5" y="-165.8" font-family="Courier,monospace" font-size="14.00" fill="#333355">c1ce07:</text>
<text text-anchor="start" x="389.5" y="-165.8" font-family="Courier,monospace" font-weight="bold" font-size="14.00" fill="#333355">add remark about &#39;hello world&#39; order</text>
<text text-anchor="start" x="365" y="-151.8" font-family="Courier,monospace" font-size="14.00" fill="#333355"> Max Mustermann 2017&#45;07&#45;31 13:29:11</text>
</g>
<!-- refs/heads/master -->
<g id="node6" class="node"><title>refs/heads/master</title>
<path fill="#c7ffc7" stroke="#a0a0a0" d="M530.5,-252C530.5,-252 488.5,-252 488.5,-252 482.5,-252 476.5,-246 476.5,-240 476.5,-240 476.5,-228 476.5,-228 476.5,-222 482.5,-216 488.5,-216 488.5,-216 530.5,-216 530.5,-216 536.5,-216 542.5,-222 542.5,-228 542.5,-228 542.5,-240 542.5,-240 542.5,-246 536.5,-252 530.5,-252"/>
<text text-anchor="start" x="492.5" y="-237.8" font-family="Courier,monospace" font-weight="bold" font-size="14.00" fill="#333355">HEAD</text>
<text text-anchor="start" x="484.5" y="-223.8" font-family="Courier,monospace" font-weight="bold" font-size="14.00" fill="#333355">master</text>
</g>
<!-- c1ce07c74020b5c0e113639e8d976bf32a843c6b&#45;&gt;refs/heads/master -->
<g id="edge1" class="edge"><title>c1ce07c74020b5c0e113639e8d976bf32a843c6b&#45;&gt;refs/heads/master</title>
<path fill="none" stroke="#cc9900" stroke-width="2" d="M509.5,-190.169C509.5,-190.169 509.5,-215.587 509.5,-215.587"/>
<polygon fill="#cc9900" stroke="#cc9900" stroke-width="2" points="513,-190.169 509.5,-180.169 506,-190.169 513,-190.169"/>
</g>
<!-- 9af1a518a77bc56dc697bee6ba1c356bb0c1b2f8 -->
<g id="node3" class="node"><title>9af1a518a77bc56dc697bee6ba1c356bb0c1b2f8</title>
<path fill="#fcf594" stroke="#a0a0a0" d="M471,-108C471,-108 190,-108 190,-108 184,-108 178,-102 178,-96 178,-96 178,-84 178,-84 178,-78 184,-72 190,-72 190,-72 471,-72 471,-72 477,-72 483,-78 483,-84 483,-84 483,-96 483,-96 483,-102 477,-108 471,-108"/>
<text text-anchor="start" x="260" y="-93.8" font-family="Courier,monospace" font-size="14.00" fill="#333355">9af1a5:</text>
<text text-anchor="start" x="318" y="-93.8" font-family="Courier,monospace" font-weight="bold" font-size="14.00" fill="#333355">add README</text>
<text text-anchor="start" x="186" y="-79.8" font-family="Courier,monospace" font-size="14.00" fill="#333355"> Max Mustermann 2017&#45;07&#45;31 13:03:40</text>
</g>
<!-- 9af1a518a77bc56dc697bee6ba1c356bb0c1b2f8&#45;&gt;0dd2abecc31c0dca958734cbff92f3a1554cd7f1 -->
<g id="edge5" class="edge"><title>9af1a518a77bc56dc697bee6ba1c356bb0c1b2f8&#45;&gt;0dd2abecc31c0dca958734cbff92f3a1554cd7f1</title>
<path fill="none" stroke="#cc9900" stroke-width="2" d="M241.5,-108.169C241.5,-108.169 241.5,-133.587 241.5,-133.587"/>
<polygon fill="#cc9900" stroke="#cc9900" stroke-width="2" points="238,-133.587 241.5,-143.587 245,-133.587 238,-133.587"/>
</g>
<!-- 9af1a518a77bc56dc697bee6ba1c356bb0c1b2f8&#45;&gt;c1ce07c74020b5c0e113639e8d976bf32a843c6b -->
<g id="edge3" class="edge"><title>9af1a518a77bc56dc697bee6ba1c356bb0c1b2f8&#45;&gt;c1ce07c74020b5c0e113639e8d976bf32a843c6b</title>
<path fill="none" stroke="#cc9900" stroke-width="2" d="M403.25,-108.169C403.25,-108.169 403.25,-133.587 403.25,-133.587"/>
<polygon fill="#cc9900" stroke="#cc9900" stroke-width="2" points="399.75,-133.587 403.25,-143.587 406.75,-133.587 399.75,-133.587"/>
</g>
<!-- 849c17589476d9451bc55659008cda5ac2aa68cb -->
<g id="node4" class="node"><title>849c17589476d9451bc55659008cda5ac2aa68cb</title>
<path fill="#fcf594" stroke="#a0a0a0" d="M471,-36C471,-36 190,-36 190,-36 184,-36 178,-30 178,-24 178,-24 178,-12 178,-12 178,-6 184,-0 190,-0 190,-0 471,-0 471,-0 477,-0 483,-6 483,-12 483,-12 483,-24 483,-24 483,-30 477,-36 471,-36"/>
<text text-anchor="start" x="227" y="-21.8" font-family="Courier,monospace" font-size="14.00" fill="#333355">849c17:</text>
<text text-anchor="start" x="285" y="-21.8" font-family="Courier,monospace" font-weight="bold" font-size="14.00" fill="#333355">inital boilerplate</text>
<text text-anchor="start" x="186" y="-7.8" font-family="Courier,monospace" font-size="14.00" fill="#333355"> Max Mustermann 2017&#45;07&#45;31 12:59:40</text>
</g>
<!-- 849c17589476d9451bc55659008cda5ac2aa68cb&#45;&gt;9af1a518a77bc56dc697bee6ba1c356bb0c1b2f8 -->
<g id="edge2" class="edge"><title>849c17589476d9451bc55659008cda5ac2aa68cb&#45;&gt;9af1a518a77bc56dc697bee6ba1c356bb0c1b2f8</title>
<path fill="none" stroke="#cc9900" stroke-width="2" d="M330.5,-36.1686C330.5,-36.1686 330.5,-61.5867 330.5,-61.5867"/>
<polygon fill="#cc9900" stroke="#cc9900" stroke-width="2" points="327,-61.5867 330.5,-71.5867 334,-61.5868 327,-61.5867"/>
</g>
</g>
</svg>
